<svg xmlns="http://www.w3.org/2000/svg" width="1200" height="630" viewBox="0 0 1200 630">
  <!-- OG share card -->
  <defs>
    <pattern id="oght" width="16" height="16" patternUnits="userSpaceOnUse">
      <circle cx="4" cy="4" r="2.4" fill="#16181d" opacity=".14"/>
    </pattern>
  </defs>
  <rect width="1200" height="630" fill="#f2ead7"/>
  <rect width="1200" height="630" fill="url(#oght)"/>
  <rect x="28" y="28" width="1144" height="574" fill="none" stroke="#16181d" stroke-width="8" rx="18"/>
  <g font-family="Anton, sans-serif" fill="#16181d">
    <text x="92" y="240" font-size="128" letter-spacing="4">ZAIN UDDIN</text>
    <text x="94" y="330" font-size="56" fill="#e62429" font-family="Bangers, cursive" letter-spacing="6">FRONT-END DEVELOPER · QUETTA, PAKISTAN</text>
  </g>
  <g font-family="monospace" font-weight="700" fill="#16181d" font-size="34">
    <text x="94" y="430">&lt;with great code comes great sites /&gt;</text>
  </g>
  <g font-family="monospace" fill="#16181d" opacity=".75" font-size="28">
    <text x="94" y="520">github.com/zainpapi</text>
  </g>
  <g transform="translate(930 330)">
    <path d="M90 0c34 0 54 24 54 52v70l-27-19-27 19-27-19-27 19V52C36 24 56 0 90 0z" fill="#e62429" stroke="#16181d" stroke-width="7"/>
    <circle cx="72" cy="58" r="8" fill="#fff"/>
    <circle cx="108" cy="58" r="8" fill="#fff"/>
    <path d="M76 82q14 12 28 0" stroke="#fff" stroke-width="6" fill="none" stroke-linecap="round"/>
  </g>
  <g font-family="Bangers, cursive" fill="#ffd23e" stroke="#16181d" stroke-width="2" font-size="52" transform="rotate(-8 760 150)">
    <text x="640" y="170">ISSUE #001!</text>
  </g>
</svg>
